0 FILE Milo
0 Untitled Model
0 Name:  Milo
0 Author:  
0 CustomBrick
0 FlexibleBrickControlPointUnitLength -1
0 NumOfBricks:  46
1 10 0.000000 -8.000000 20.000000 1.000000 0.000000 0.000000 0.000000 1.000000 0.000000 0.000000 0.000000 1.000000 3738.dat
1 10 0.000000 -8.000000 -20.000000 1.000000 0.000000 0.000000 0.000000 1.000000 0.000000 0.000000 0.000000 1.000000 3738.dat
0 STEP
1 27 40.000000 -16.000000 0.000000 0.000000 0.000000 1.000000 0.000000 1.000000 0.000000 -1.000000 0.000000 0.000000 32059.dat
0 STEP
1 0 20.000000 -24.000000 9.999990 1.000000 0.000000 0.000000 0.000000 1.000000 0.000000 0.000000 0.000000 1.000000 32530.dat
1 0 20.000000 -24.000000 -10.000010 1.000000 0.000000 0.000000 0.000000 1.000000 0.000000 0.000000 0.000000 1.000000 32530.dat
0 STEP
1 27 -80.000000 -32.000000 30.000000 1.000000 0.000000 0.000000 0.000000 1.000000 0.000000 0.000000 0.000000 1.000000 3702.dat
0 STEP
1 16 -120.000000 0.000000 0.000000 1.000000 0.000000 0.000000 0.000000 1.000000 0.000000 0.000000 0.000000 1.000000 unión
0 STEP
1 322 -20.000000 -32.000000 0.000000 1.000000 0.000000 0.000000 0.000000 1.000000 0.000000 0.000000 0.000000 1.000000 3003.dat
0 STEP
1 0 -60.000020 -22.000000 61.430000 0.000000 0.000000 1.000000 0.000000 1.000000 0.000000 -1.000000 0.000000 0.000000 3706.dat
1 71 -60.000020 -22.002850 1.430000 1.000000 0.000000 0.000000 0.000000 1.000000 0.000000 0.000000 0.000000 1.000000 59443.dat
0 STEP
1 27 -80.000000 -32.000000 -30.000000 1.000000 0.000000 0.000000 0.000000 1.000000 0.000000 0.000000 0.000000 1.000000 3702.dat
0 STEP
1 0 -60.000020 -22.000000 -66.900000 0.000000 0.000000 -1.000000 0.000000 1.000000 0.000000 1.000000 0.000000 0.000000 3706.dat
1 71 -60.000020 -22.000000 -52.090000 1.000000 0.000000 0.000000 0.000000 1.000000 0.000000 0.000000 0.000000 1.000000 3713.dat
0 STEP
1 71 -60.000020 -22.000000 46.250000 1.000000 0.000000 0.000000 0.000000 1.000000 0.000000 0.000000 0.000000 1.000000 3713.dat
0 STEP
1 16 59.999980 -16.000000 59.999990 0.000000 0.000000 1.000000 0.000000 1.000000 0.000000 -1.000000 0.000000 0.000000 motor
0 STEP
1 71 -80.000010 -104.000000 0.000000 0.000000 0.000000 1.000000 0.000000 1.000000 0.000000 -1.000000 0.000000 0.000000 19071c01.dat
0 STEP
1 15 -40.000000 0.000000 10.000000 1.000000 0.000000 0.000000 0.000000 1.000000 0.000000 0.000000 0.000000 1.000000 60479.dat
1 15 -40.000000 0.000000 -10.000000 1.000000 0.000000 0.000000 0.000000 1.000000 0.000000 0.000000 0.000000 1.000000 60479.dat
0 STEP
1 0 -140.000000 8.000000 0.000000 1.000000 0.000000 0.000000 0.000000 1.000000 0.000000 0.000000 0.000000 1.000000 2654.dat
0 STEP
1 16 60.000000 24.000000 0.000000 1.000000 0.000000 0.000000 0.000000 1.000000 0.000000 0.000000 0.000000 1.000000 placa
0 STEP
1 43 -60.000030 -22.000000 -67.469690 1.000000 0.000000 0.000000 0.000000 1.000000 0.000000 0.000000 0.000000 1.000000 4185.dat
1 43 -60.000000 -22.000000 63.700000 1.000000 0.000000 0.000000 0.000000 1.000000 0.000000 0.000000 0.000000 1.000000 4185.dat
0 STEP
1 16 -60.000020 23.897480 -93.509990 1.000000 0.000000 0.000000 0.000000 1.000000 0.000000 0.000000 0.000000 1.000000 rueda
0 STEP
1 16 -60.000020 23.897480 87.840000 -1.000000 0.000000 0.000000 0.000000 1.000000 0.000000 0.000000 0.000000 -1.000000 rueda
0 STEP
1 16 -340.514900 -174.406000 -93.705240 -0.611755 -0.389520 -0.688498 -0.185007 0.916677 -0.354227 0.769108 -0.089323 -0.632846 cabeza
0 STEP
1 16 -236.742900 -117.583100 -38.945110 0.569285 0.777610 -0.266904 0.773196 -0.396052 0.495289 0.279434 -0.488330 -0.826711 cuello
0 STEP
0 NOFILE
0 FILE Unión
0 Unión
0 Name:  Unión
0 Author:  
0 CustomBrick
0 FlexibleBrickControlPointUnitLength -1
0 NumOfBricks:  4
1 191 0.000000 -8.000000 20.000000 1.000000 0.000000 0.000000 0.000000 1.000000 0.000000 0.000000 0.000000 1.000000 3709b.dat
1 191 0.000000 -8.000000 -20.000000 1.000000 0.000000 0.000000 0.000000 1.000000 0.000000 0.000000 0.000000 1.000000 3709b.dat
0 STEP
1 0 20.000000 -32.000000 0.000000 1.000000 0.000000 0.000000 0.000000 1.000000 0.000000 0.000000 0.000000 1.000000 3003.dat
0 STEP
1 43 -20.000000 -32.000000 0.000000 -1.000000 0.000000 0.000000 0.000000 1.000000 0.000000 0.000000 0.000000 -1.000000 92013.dat
0 STEP
0 NOFILE
0 FILE Motor
0 Motor
0 Name:  Motor
0 Author:  
0 CustomBrick
0 FlexibleBrickControlPointUnitLength -1
0 NumOfBricks:  3
1 15 20.000000 -56.000000 0.000000 0.000000 0.000000 1.000000 0.000000 1.000000 0.000000 -1.000000 0.000000 0.000000 21980.dat
0 STEP
1 4 0.000000 -30.000000 0.000000 1.000000 0.000000 0.000000 0.000000 1.000000 0.000000 0.000000 0.000000 1.000000 32062.dat
0 STEP
1 15 -18.390000 -30.000000 0.000000 0.000000 0.000000 1.000000 0.000000 1.000000 0.000000 -1.000000 0.000000 0.000000 55982.dat
0 STEP
0 NOFILE
0 FILE Placa
0 Placa
0 Name:  Placa
0 Author:  
0 CustomBrick
0 FlexibleBrickControlPointUnitLength -1
0 NumOfBricks:  2
1 10 0.000000 -16.000000 0.000000 1.000000 0.000000 0.000000 0.000000 1.000000 0.000000 0.000000 0.000000 1.000000 4032a.dat
0 STEP
1 0 0.000000 -8.000000 0.000000 1.000000 0.000000 0.000000 0.000000 1.000000 0.000000 0.000000 0.000000 1.000000 2654.dat
0 STEP
0 NOFILE
0 FILE Rueda
0 Rueda
0 Name:  Rueda
0 Author:  
0 CustomBrick
0 FlexibleBrickControlPointUnitLength -1
0 NumOfBricks:  2
1 15 0.000000 -45.897480 0.000000 1.000000 0.000000 0.000000 0.000000 1.000000 0.000000 0.000000 0.000000 1.000000 55982.dat
0 STEP
1 0 0.000000 -45.897480 0.000000 0.000000 1.000000 0.000000 -1.000000 0.000000 0.000000 0.000000 0.000000 1.000000 56891.dat
0 STEP
0 NOFILE
0 FILE Cabeza
0 Cabeza
0 Name:  Cabeza
0 Author:  
0 CustomBrick
0 FlexibleBrickControlPointUnitLength -1
0 NumOfBricks:  11
1 191 0.000000 -8.000510 -18.181820 1.000000 0.000000 0.000000 0.000000 1.000000 0.000000 0.000000 0.000000 1.000000 3709b.dat
1 43 0.000000 -32.000510 -18.181820 0.000000 0.000000 1.000000 0.000000 1.000000 0.000000 -1.000000 0.000000 0.000000 92013.dat
0 STEP
1 15 -30.000000 -32.000510 -8.181849 0.000000 0.000000 1.000000 0.000000 1.000000 0.000000 -1.000000 0.000000 0.000000 87087.dat
1 15 30.000020 -32.000510 -8.181820 0.000000 0.000000 -1.000000 0.000000 1.000000 0.000000 1.000000 0.000000 0.000000 87087.dat
0 STEP
1 15 20.000000 -40.000510 -8.181820 -1.000000 0.000000 0.000000 0.000000 1.000000 0.000000 0.000000 0.000000 -1.000000 44728.dat
1 15 -20.000000 -40.000510 -8.181849 -1.000000 0.000000 0.000000 0.000000 1.000000 0.000000 0.000000 0.000000 -1.000000 44728.dat
0 STEP
1 15 48.000020 -22.000510 -8.181789 0.000000 -1.000000 0.000000 0.000000 0.000000 1.000000 -1.000000 0.000000 0.000000 73587p01.dat copy
1 15 -48.000000 -22.000510 -8.181849 0.000000 1.000000 0.000000 0.000000 0.000000 1.000000 1.000000 0.000000 0.000000 73587p01.dat copy
0 STEP
1 322 30.000000 -20.000510 13.818180 0.000000 0.000000 1.000000 -1.000000 0.000000 0.000000 0.000000 -1.000000 0.000000 3069b.dat
1 322 -30.000000 -20.000510 13.818150 0.000000 0.000000 1.000000 -1.000000 0.000000 0.000000 0.000000 -1.000000 0.000000 3069b.dat
1 15 0.000000 -20.000520 13.818210 1.000000 0.000000 0.000000 0.000000 0.000000 1.000000 0.000000 -1.000000 0.000000 14769p01.dat
0 STEP
0 NOFILE
0 FILE 73587p01.dat Copy
0 Antenna Small Base with Black Lever (4592 / 4593)
0 Name:  4592c02
0 Author:  Magnus Forsberg [MagFors]
0 FlexibleBrick:  73587p01.dat
0 FlexibleBrickControlPointUnitLength -1
1 16 0.000000 0.000000 0.000000 1.000000 0.000000 0.000000 0.000000 1.000000 0.000000 0.000000 0.000000 1.000000 4592.dat
1 0 0.000000 -2.000000 0.000000 1.000000 0.000000 0.000000 0.000000 0.573576 -0.819152 0.000000 0.819152 0.573576 4593.dat
0 NOFILE
0 FILE Cuello
0 Cuello
0 Name:  Cuello
0 Author:  
0 CustomBrick
0 FlexibleBrickControlPointUnitLength -1
0 NumOfBricks:  3
1 191 117.590000 -12.750010 0.000000 0.000000 -1.000000 0.000000 0.000000 0.000000 -1.000000 1.000000 0.000000 0.000000 32474.dat
0 STEP
1 0 19.360000 -12.750010 0.000000 1.000000 0.000000 0.000000 0.000000 1.000000 0.000000 0.000000 0.000000 1.000000 3737.dat
0 STEP
1 191 -79.950000 -12.750000 0.000000 0.000000 1.000000 0.000000 0.000000 0.000000 -1.000000 -1.000000 0.000000 0.000000 32474.dat
0 STEP
0 NOFILE
